# xmcd
#
# Track frame offsets: 
#        150
#        14752
#        29733
#        48215
#        58828
#        72959
#        88774
#        102506
#        112736
#        125120
#        144475
#        159815
#
# Disc length: 2264 seconds
#
# Revision: 0
# Processed by: cddbd v1.5.2PL0 Copyright (c) Steve Scherf et al.
# Submitted via: ExactAudioCopy v0.95b3
#
DISCID=a808d60c
DTITLE=Mechanical Bull - A Million Yesterdays
DYEAR=2008
DGENRE=Country
TTITLE0=Dreaming Days
TTITLE1=Crazy Lady
TTITLE2=Desert Air
TTITLE3=Debts
TTITLE4=The End
TTITLE5=Find A Home
TTITLE6=Biggest Nerd in the Class
TTITLE7=Left Turn in Jersey
TTITLE8=Luke Warm Coffee
TTITLE9=Million Yesterdays
TTITLE10=Goodbye Woodstock
TTITLE11=DJ Dancer (Isa's song)
EXTD=
EXTT0=
EXTT1=
EXTT2=
EXTT3=
EXTT4=
EXTT5=
EXTT6=
EXTT7=
EXTT8=
EXTT9=
EXTT10=
EXTT11=
PLAYORDER=
